<?xml version="1.0" encoding="utf-8"?>
<!-- Generator: Adobe Illustrator 22.1.0, SVG Export Plug-In . SVG Version: 6.00 Build 0)  -->
<svg version="1.1" id="Layer_1" xmlns="http://www.w3.org/2000/svg" xmlns:xlink="http://www.w3.org/1999/xlink" x="0px" y="0px"
	 viewBox="0 0 257.8 101.8" style="enable-background:new 0 0 257.8 101.8;" xml:space="preserve">
<style type="text/css">
	.st0{clip-path:url(#SVGID_2_);}
	.st1{fill:#00B2DD;}
	.st2{fill:#006488;}
	.st3{fill:#004158;}
</style>
<g>
	<g>
		<defs>
			<rect id="SVGID_1_" x="-5.8" y="0.6" width="264.8" height="99"/>
		</defs>
		<clipPath id="SVGID_2_">
			<use xlink:href="#SVGID_1_"  style="overflow:visible;"/>
		</clipPath>
		<path class="st0" d="M217,59.5c4.3,4.1,10,6.2,17,6.2c7,0,12.7-1.8,17-5.3c4.2-3.5,6.3-8.2,6.3-14c0-4.9-2.5-8.9-7.5-11.9
			c-3.8-2.4-9.1-4.2-15.9-5.3c-4-0.7-7.2-2-9.6-3.8c-2.9-2.1-4.4-4.7-4.4-7.9c0-3,1.3-5.4,3.8-7.2c2.6-1.8,6-2.7,10.2-2.7
			c3.6,0,6.6,1.2,9.2,3.5c2.5,2.4,4.1,5.5,4.8,9.4h7.8c0-6-2-10.8-5.9-14.4c-4-3.6-9.3-5.4-15.9-5.4c-6.6,0-11.9,1.5-15.9,4.6
			c-4,3.1-5.9,7.1-5.9,12.2c0,5,2.2,9.2,6.8,12.6c4,2.9,9,5,15.1,6c4.6,0.8,8.1,1.9,10.6,3.3c3.3,1.9,5,4.5,5,7.7
			c0,3.6-1.4,6.4-4.3,8.5c-2.8,2.1-6.6,3.2-11.3,3.2c-4.7,0-8.5-1.4-11.3-4.3c-2.9-2.8-4.3-6.6-4.3-11.3h-7.8
			C210.6,49.9,212.7,55.4,217,59.5 M203.6,1.8h-7.8v62.3h7.8V1.8z M134.5,64.1V17.4l18.6,46.7h5.4l18.7-46.7v46.7h7.8V1.8h-9.7
			l-19.5,49.1L136.5,1.8h-9.7v62.3H134.5z M120,64.1v-7.4h-35V35.6h31.1v-7.4H84.9V9.2h35V1.8H77.1v62.3H120z"/>
	</g>
	<rect x="33.7" y="2.1" class="st1" width="28" height="28"/>
	<rect x="33.7" y="35.8" class="st2" width="28" height="28"/>
	<rect y="35.8" class="st3" width="28" height="28"/>
</g>
<g>
	<path d="M2.1,82v14.9H0.3V82H2.1z"/>
	<path d="M12.4,89.9v7.1h-1.7v-7c0-2-0.6-2.9-1.8-2.9c-1.3,0-2.2,1.1-2.2,3v6.9H5V85.7h1.3l0.2,1.3c0.6-1,1.5-1.6,2.9-1.6
		C11.2,85.5,12.4,86.8,12.4,89.9z"/>
	<path d="M16.4,95l-1.1,4.7h-1.1l0.4-4.7H16.4z"/>
	<path d="M22.8,92.3v-5.6c0-3,1.7-4.9,4.4-4.9c2.8,0,4.4,1.9,4.4,4.9v5.6c0,3.1-1.6,5-4.4,5C24.5,97.2,22.8,95.3,22.8,92.3z
		 M29.9,92.3v-5.6c0-2.1-0.9-3.2-2.6-3.2c-1.7,0-2.6,1.2-2.6,3.2v5.6c0,2.1,0.9,3.3,2.6,3.3C29,95.5,29.9,94.3,29.9,92.3z"/>
	<path d="M41.5,89.9v7.1h-1.7v-7c0-2-0.6-2.9-1.8-2.9c-1.3,0-2.2,1.1-2.2,3v6.9h-1.7V85.7h1.3l0.2,1.3c0.6-1,1.5-1.6,2.9-1.6
		C40.3,85.5,41.5,86.8,41.5,89.9z"/>
	<path d="M55.7,89.3v7.6h-1.4l-0.1-1.1c-0.5,0.8-1.3,1.3-2.6,1.3c-2,0-3.5-1.3-3.5-3.5c0-2.2,1.5-3.4,4-3.4H54v-1
		c0-1.5-0.6-2.3-1.9-2.3c-1.1,0-1.9,0.6-2,1.7h-1.7c0.1-2,1.5-3.3,3.7-3.3C54.5,85.5,55.7,86.9,55.7,89.3z M54,91.8h-1.9
		c-1.4,0-2.2,0.7-2.2,1.9c0,1.2,0.8,1.9,2.1,1.9c1.3,0,2.1-0.8,2.1-2V91.8z"/>
	<path d="M65.8,89.9v7.1h-1.7v-7c0-2-0.6-2.9-1.8-2.9c-1.3,0-2.2,1.1-2.2,3v6.9h-1.7V85.7h1.3l0.2,1.3c0.6-1,1.5-1.6,2.9-1.6
		C64.6,85.5,65.8,86.8,65.8,89.9z"/>
	<path d="M75.5,81.5v15.4h-1.3l-0.2-1c-0.6,0.8-1.5,1.3-2.6,1.3c-2.1,0-3.5-1.5-3.5-4.3v-3.2c0-2.7,1.4-4.3,3.5-4.3
		c0.9,0,1.8,0.4,2.4,1.1v-5H75.5z M73.9,89.7c0-1.6-0.8-2.7-2.1-2.7c-1.4,0-2.1,0.8-2.1,2.7v3.2c0,1.9,0.8,2.7,2.1,2.7
		c1.2,0,2.1-0.9,2.1-2.7V89.7z"/>
	<path d="M84.9,83.7v5.1h4.8v1.6h-4.8v6.6h-1.7V82H90v1.6H84.9z"/>
	<path d="M91.1,93v-3.4c0-2.7,1.5-4.2,3.9-4.2s3.8,1.5,3.8,4.2V93c0,2.7-1.5,4.2-3.8,4.2S91.1,95.7,91.1,93z M97.1,93v-3.4
		c0-1.7-0.8-2.5-2.1-2.5c-1.3,0-2.1,0.8-2.1,2.5V93c0,1.7,0.8,2.5,2.1,2.5C96.3,95.6,97.1,94.8,97.1,93z"/>
	<path d="M106.7,85.6v1.7c-0.4-0.1-0.9-0.2-1.4-0.2c-1.5,0-2.5,1.1-2.5,3v6.9h-1.7V85.7h1.3l0.2,1.4c0.6-1,1.5-1.6,2.9-1.6
		C106,85.5,106.3,85.5,106.7,85.6z"/>
	<path d="M120.6,95.3v1.6h-7.4V82h7.1v1.6H115v4.9h5v1.6h-5v5.1H120.6z"/>
	<path d="M135.5,89.9v7.1h-1.7v-7c0-2.1-0.6-2.9-1.7-2.9c-1.3,0-2.2,1.1-2.2,3v6.9h-1.7v-7c0-2.1-0.7-2.9-1.7-2.9
		c-1.3,0-2.2,1.1-2.2,3v6.9h-1.7V85.7h1.3l0.2,1.3c0.6-1,1.4-1.6,2.7-1.6c1.2,0,2.2,0.6,2.7,1.9c0.5-1.2,1.5-1.9,3-1.9
		C134.4,85.5,135.5,86.9,135.5,89.9z"/>
	<path d="M145.5,93.5c-0.2,2.4-1.6,3.7-4,3.7c-2.3,0-3.7-1.5-3.7-4.1v-3.5c0-2.6,1.5-4.1,3.7-4.1c2.3,0,3.8,1.5,3.8,4.1V92h-5.9v1
		c0,1.7,0.8,2.5,2.1,2.5c1.4,0,2.1-0.6,2.3-2.1H145.5z M139.5,89.5v1.1h4.2v-1.1c0-1.7-0.8-2.5-2.1-2.5
		C140.2,87.1,139.5,87.9,139.5,89.5z"/>
	<path d="M153.2,85.6v1.7c-0.4-0.1-0.9-0.2-1.4-0.2c-1.5,0-2.5,1.1-2.5,3v6.9h-1.7V85.7h1.3l0.2,1.4c0.6-1,1.5-1.6,2.9-1.6
		C152.5,85.5,152.8,85.5,153.2,85.6z"/>
	<path d="M162,85.7v11.9c0,2.1-1.4,3.4-3.7,3.4c-2.2,0-3.6-1.3-3.7-3.4h1.6c0.1,1.2,0.8,1.8,2,1.8c1.2,0,2-0.7,2-1.9v-1.9
		c-0.6,0.6-1.4,0.9-2.3,0.9c-2.1,0-3.6-1.5-3.6-4v-2.8c0-2.7,1.5-4.3,3.6-4.3c1.1,0,1.9,0.4,2.5,1.3l0.2-1H162z M160.3,92.5v-2.9
		c0-1.7-0.9-2.5-2-2.5c-1.4,0-2.2,0.8-2.2,2.7v2.8c0,1.7,0.8,2.5,2.2,2.5C159.6,95,160.3,94.2,160.3,92.5z"/>
	<path d="M164.3,82.6c0-0.7,0.5-1.2,1.2-1.2c0.7,0,1.2,0.5,1.2,1.2c0,0.7-0.5,1.1-1.2,1.1C164.7,83.8,164.3,83.3,164.3,82.6z
		 M164.6,85.7h1.7v11.2h-1.7V85.7z"/>
	<path d="M176.3,89.9v7.1h-1.7v-7c0-2-0.6-2.9-1.8-2.9c-1.3,0-2.2,1.1-2.2,3v6.9h-1.7V85.7h1.3l0.2,1.3c0.6-1,1.5-1.6,2.9-1.6
		C175.1,85.5,176.3,86.8,176.3,89.9z"/>
	<path d="M186.2,85.7v11.9c0,2.1-1.4,3.4-3.7,3.4c-2.2,0-3.6-1.3-3.7-3.4h1.6c0.1,1.2,0.8,1.8,2,1.8c1.2,0,2-0.7,2-1.9v-1.9
		c-0.6,0.6-1.4,0.9-2.3,0.9c-2.1,0-3.6-1.5-3.6-4v-2.8c0-2.7,1.5-4.3,3.6-4.3c1.1,0,1.9,0.4,2.5,1.3l0.2-1H186.2z M184.5,92.5v-2.9
		c0-1.7-0.9-2.5-2-2.5c-1.4,0-2.2,0.8-2.2,2.7v2.8c0,1.7,0.8,2.5,2.2,2.5C183.7,95,184.5,94.2,184.5,92.5z"/>
	<path d="M204.9,82v14.9h-1.7v-6.8c0-1.6,0.1-3.1,0.1-4.5l-0.1,0c-0.4,1.1-1,2.5-1.5,3.9l-1.6,4h-1.7l-1.6-4
		c-0.5-1.4-1.1-2.8-1.5-3.9l-0.1,0c0.1,1.4,0.1,2.9,0.1,4.5v6.8h-1.7V82h1.8l2.6,6.2c0.4,0.9,0.9,2.4,1.1,3.1h0.1
		c0.3-0.8,0.8-2.2,1.1-3.1l2.6-6.2H204.9z"/>
	<path d="M214.8,89.3v7.6h-1.4l-0.1-1.1c-0.5,0.8-1.3,1.3-2.6,1.3c-2,0-3.5-1.3-3.5-3.5c0-2.2,1.5-3.4,4-3.4h1.9v-1
		c0-1.5-0.6-2.3-1.9-2.3c-1.1,0-1.9,0.6-2,1.7h-1.7c0.1-2,1.5-3.3,3.7-3.3C213.5,85.5,214.8,86.9,214.8,89.3z M213.1,91.8h-1.9
		c-1.4,0-2.2,0.7-2.2,1.9c0,1.2,0.8,1.9,2.1,1.9c1.3,0,2.1-0.8,2.1-2V91.8z"/>
	<path d="M222.9,85.6v1.7c-0.4-0.1-0.9-0.2-1.4-0.2c-1.5,0-2.5,1.1-2.5,3v6.9h-1.7V85.7h1.3l0.2,1.4c0.6-1,1.5-1.6,2.9-1.6
		C222.2,85.5,222.6,85.5,222.9,85.6z"/>
	<path d="M227.2,91.5l-1,1.1v4.3h-1.7V81.5h1.7v8.9l3.7-4.7h2l-3.6,4.5l4.2,6.7h-2L227.2,91.5z"/>
	<path d="M240.7,93.5c-0.2,2.4-1.6,3.7-4,3.7c-2.3,0-3.7-1.5-3.7-4.1v-3.5c0-2.6,1.5-4.1,3.7-4.1c2.3,0,3.8,1.5,3.8,4.1V92h-5.9v1
		c0,1.7,0.8,2.5,2.1,2.5c1.4,0,2.1-0.6,2.3-2.1H240.7z M234.7,89.5v1.1h4.2v-1.1c0-1.7-0.8-2.5-2.1-2.5
		C235.5,87.1,234.7,87.9,234.7,89.5z"/>
	<path d="M247.6,95.5v1.6h-0.7c-2.1,0-3.4-1.4-3.4-3.6v-6.2h-1.7v-1.5h1.7v-2.6h1.7v2.6h2.2v1.5h-2.2v6.2c0,1.3,0.5,2,1.7,2H247.6z"
		/>
	<path d="M248.7,93.6h1.7c0,1.2,0.8,2.1,2.2,2.1c1.2,0,1.9-0.6,1.9-1.6c0-2.5-5.6-1.6-5.6-5.4c0-1.9,1.4-3.1,3.5-3.1
		c2.2,0,3.6,1.4,3.6,3.5h-1.6c0-1.2-0.7-2-2-2c-1.1,0-1.8,0.6-1.8,1.6c0,2.4,5.6,1.4,5.6,5.4c0,1.9-1.4,3.2-3.6,3.2
		C250.2,97.2,248.8,95.7,248.7,93.6z"/>
</g>
</svg>
